<?xml version="1.0" encoding="utf-8"?>
<!-- Generator: Adobe Illustrator 19.0.0, SVG Export Plug-In . SVG Version: 6.00 Build 0)  -->
<svg version="1.1" id="Layer_1" xmlns="http://www.w3.org/2000/svg" xmlns:xlink="http://www.w3.org/1999/xlink" x="0px" y="0px"
	 viewBox="0 0 512 512" style="enable-background:new 0 0 512 512;" xml:space="preserve">
<style type="text/css">
	.st0{opacity:5.000000e-002;}
	.st1{fill:#1A1A1A;}
</style>
<g id="XMLID_4_">
	<ellipse id="XMLID_3_" class="st0" cx="255.8" cy="478.9" rx="193.9" ry="21"/>
	<path id="XMLID_16_" class="st1" d="M255.8,10.1C156.1,10.1,75.2,91,75.2,190.8c0,130.9,101.5,227.3,152.4,267.4
		c17,13.4,28.3,20.5,28.3,20.5s11.2-7.1,28.1-20.5c50.8-40.2,152.5-137,152.5-267.4C436.5,91,355.6,10.1,255.8,10.1z M255.8,265.8
		c-37.6,0-68-30.5-68-68c0-37.6,30.5-68,68-68c37.6,0,68,30.5,68,68C323.9,235.3,293.4,265.8,255.8,265.8z"/>
</g>
</svg>
